<svg width="211" height="232" viewBox="0 0 211 232" fill="none" xmlns="http://www.w3.org/2000/svg">
<path d="M44.1563 203H42.125L48 187H50L55.875 203H53.8437L49.0625 189.531H48.9375L44.1563 203ZM44.9063 196.75H53.0938V198.469H44.9063V196.75ZM63.4922 203.219C62.4609 203.219 61.5417 203.042 60.7344 202.687C59.9323 202.333 59.2943 201.841 58.8203 201.211C58.3516 200.576 58.0964 199.839 58.0547 199H60.0234C60.0651 199.516 60.2422 199.961 60.5547 200.336C60.8672 200.706 61.276 200.992 61.7813 201.195C62.2865 201.398 62.8464 201.5 63.4609 201.5C64.1484 201.5 64.7578 201.38 65.2891 201.141C65.8203 200.901 66.237 200.568 66.5391 200.141C66.8411 199.714 66.9922 199.219 66.9922 198.656C66.9922 198.068 66.8464 197.549 66.5547 197.102C66.263 196.648 65.8359 196.294 65.2734 196.039C64.7109 195.784 64.0234 195.656 63.2109 195.656H61.9297V193.937H63.2109C63.8464 193.937 64.4036 193.823 64.8828 193.594C65.3672 193.365 65.7448 193.042 66.0156 192.625C66.2917 192.208 66.4297 191.719 66.4297 191.156C66.4297 190.615 66.3099 190.143 66.0703 189.742C65.8307 189.341 65.4922 189.029 65.0547 188.805C64.6224 188.581 64.112 188.469 63.5234 188.469C62.9714 188.469 62.4505 188.57 61.9609 188.773C61.4766 188.971 61.0807 189.26 60.7734 189.641C60.4661 190.016 60.2995 190.469 60.2734 191H58.3984C58.4297 190.161 58.6823 189.427 59.1563 188.797C59.6302 188.161 60.25 187.667 61.0156 187.312C61.7865 186.958 62.6328 186.781 63.5547 186.781C64.5443 186.781 65.3932 186.982 66.1016 187.383C66.8099 187.779 67.3542 188.302 67.7344 188.953C68.1146 189.604 68.3047 190.307 68.3047 191.063C68.3047 191.964 68.0677 192.732 67.5937 193.367C67.125 194.003 66.487 194.443 65.6797 194.688V194.812C66.6901 194.979 67.4792 195.409 68.0469 196.102C68.6146 196.789 68.8984 197.641 68.8984 198.656C68.8984 199.526 68.6615 200.307 68.1875 201C67.7188 201.687 67.0781 202.229 66.2656 202.625C65.4531 203.021 64.5286 203.219 63.4922 203.219Z" fill="#A2A0A0"/>
<path d="M44.5 125H42.4688L48.3438 109H50.3438L56.2188 125H54.1875L49.4063 111.531H49.2813L44.5 125ZM45.25 118.75H53.4375V120.469H45.25V118.75ZM58.4297 125V123.594L63.7109 117.812C64.3307 117.135 64.8411 116.547 65.2422 116.047C65.6432 115.542 65.9401 115.068 66.1328 114.625C66.3307 114.177 66.4297 113.708 66.4297 113.219C66.4297 112.656 66.2943 112.169 66.0234 111.758C65.7578 111.346 65.3932 111.029 64.9297 110.805C64.4661 110.581 63.9453 110.469 63.3672 110.469C62.7526 110.469 62.2161 110.596 61.7578 110.852C61.3047 111.102 60.9531 111.453 60.7031 111.906C60.4583 112.359 60.3359 112.891 60.3359 113.5H58.4922C58.4922 112.562 58.7083 111.74 59.1406 111.031C59.5729 110.323 60.1615 109.771 60.9063 109.375C61.6563 108.979 62.4974 108.781 63.4297 108.781C64.3672 108.781 65.1979 108.979 65.9219 109.375C66.6458 109.771 67.2135 110.305 67.625 110.977C68.0365 111.648 68.2422 112.396 68.2422 113.219C68.2422 113.807 68.1354 114.383 67.9219 114.945C67.7135 115.503 67.349 116.125 66.8281 116.812C66.3125 117.495 65.5964 118.328 64.6797 119.312L61.0859 123.156V123.281H68.5234V125H58.4297Z" fill="#A2A0A0"/>
<path d="M46.4229 48H44.3916L50.2666 32H52.2666L58.1416 48H56.1104L51.3291 34.5312H51.2041L46.4229 48ZM47.1729 41.75H55.3604V43.4687H47.1729V41.75ZM65.2256 32V48H63.2881V34.0312H63.1943L59.2881 36.625V34.6562L63.2881 32H65.2256Z" fill="#A2A0A0"/>
<g style="mix-blend-mode:darken" opacity="0.5">
<line x1="0.5" y1="0.5" x2="118.5" y2="0.5" stroke="black" stroke-linecap="square" stroke-dasharray="6 6"/>
</g>
<g style="mix-blend-mode:darken" opacity="0.5">
<path d="M2 77H120.105" stroke="black" stroke-linecap="square" stroke-dasharray="6 6"/>
</g>
<line x1="0.499995" y1="0.997817" x2="1.50873" y2="231.998" stroke="black"/>
<line x1="119.5" y1="0.997925" x2="120.446" y2="228.998" stroke="black"/>
<g style="mix-blend-mode:darken" opacity="0.5">
<line x1="1.5" y1="153.5" x2="118.5" y2="153.5" stroke="black" stroke-linecap="square" stroke-dasharray="6 6"/>
</g>
<g style="mix-blend-mode:darken" opacity="0.5">
<line x1="2.5" y1="231.5" x2="120.605" y2="231.5" stroke="black" stroke-linecap="square" stroke-dasharray="6 6"/>
</g>
<rect x="119" width="92" height="232" fill="black"/>
<rect x="166" y="7" width="2" height="16" fill="white"/>
<rect x="166" y="40" width="2" height="16" fill="white"/>
<rect x="166" y="74" width="2" height="16" fill="white"/>
<rect x="166" y="108" width="2" height="16" fill="white"/>
<rect x="166" y="141" width="2" height="16" fill="white"/>
<rect x="166" y="175" width="2" height="16" fill="white"/>
<rect x="166" y="209" width="2" height="16" fill="white"/>
</svg>
